HIERARCHY
ROOT SpineBase
{
  OFFSET 0.000000 0.000000 0.000000
  CHANNELS 6 Xposition Yposition Zposition Zrotation Xrotation Yrotation
  JOINT SpineMid
  {
    OFFSET 0.000000 25.890394 0.000000
    CHANNELS 3 Zrotation Xrotation Yrotation
    JOINT SpineShoulder
    {
      OFFSET -0.246621 19.246291 -0.489456
      CHANNELS 3 Zrotation Xrotation Yrotation
      JOINT Neck
      {
        OFFSET -0.110825 6.381157 -0.411662
        CHANNELS 3 Zrotation Xrotation Yrotation
        JOINT Head
        {
          OFFSET 3.470366 12.532482 1.390498
          CHANNELS 3 Zrotation Xrotation Yrotation
          End Site
          {
            OFFSET 0 0 0
          }
        }
      }
      JOINT ShoulderLeft
      {
        OFFSET -10.257460 -1.546321 -6.258346
        CHANNELS 3 Zrotation Xrotation Yrotation
        JOINT ElbowLeft
        {
          OFFSET -6.868757 -19.753955 -1.441160
          CHANNELS 3 Zrotation Xrotation Yrotation
          JOINT WristLeft
          {
            OFFSET 22.540377 2.639888 -10.689610
            CHANNELS 3 Zrotation Xrotation Yrotation
            JOINT HandLeft
            {
              OFFSET 9.308108 -1.822312 -3.605976
              CHANNELS 3 Zrotation Xrotation Yrotation
              JOINT HandTipLeft
              {
                OFFSET 4.613025 0.028189 -3.338401
                CHANNELS 3 Zrotation Xrotation Yrotation
                End Site
                {
                  OFFSET 0 0 0
                }
              }
              JOINT ThumbLeft
              {
                OFFSET -0.373252 4.143135 -3.285013
                CHANNELS 3 Zrotation Xrotation Yrotation
                End Site
                {
                  OFFSET 0 0 0
                }
              }
            }
          }
        }
      }
      JOINT ShoulderRight
      {
        OFFSET 12.281094 -4.162345 6.827016
        CHANNELS 3 Zrotation Xrotation Yrotation
        JOINT ElbowRight
        {
          OFFSET 4.727923 -16.951530 4.636931
          CHANNELS 3 Zrotation Xrotation Yrotation
          JOINT WristRight
          {
            OFFSET -7.413593 -0.289660 -24.283655
            CHANNELS 3 Zrotation Xrotation Yrotation
            JOINT HandRight
            {
              OFFSET 3.438203 0.193755 -7.843209
              CHANNELS 3 Zrotation Xrotation Yrotation
              JOINT HandTipRight
              {
                OFFSET 2.538988 3.057960 -4.089911
                CHANNELS 3 Zrotation Xrotation Yrotation
                End Site
                {
                  OFFSET 0 0 0
                }
              }
              JOINT ThumbRight
              {
                OFFSET -4.399942 -0.358962 -0.919943
                CHANNELS 3 Zrotation Xrotation Yrotation
                End Site
                {
                  OFFSET 0 0 0
                }
              }
            }
          }
        }
      }
    }
  }
  JOINT HipLeft
  {
    OFFSET -4.352037 1.398274 -5.493664
    CHANNELS 3 Zrotation Xrotation Yrotation
    JOINT KneeLeft
    {
      OFFSET -4.751904 -34.234605 0.081175
      CHANNELS 3 Zrotation Xrotation Yrotation
      JOINT AnkleLeft
      {
        OFFSET -2.827756 -34.024730 6.562304
        CHANNELS 3 Zrotation Xrotation Yrotation
        JOINT FootLeft
        {
          OFFSET 3.870469 -6.262480 -0.341673
          CHANNELS 3 Zrotation Xrotation Yrotation
          End Site
          {
            OFFSET 0 0 0
          }
        }
      }
    }
  }
  JOINT HipRight
  {
    OFFSET 4.086917 0.115578 -0.553203
    CHANNELS 3 Zrotation Xrotation Yrotation
    JOINT KneeRight
    {
      OFFSET -0.033896 -33.799186 3.007404
      CHANNELS 3 Zrotation Xrotation Yrotation
      JOINT AnkleRight
      {
        OFFSET -4.596768 -33.943159 7.182195
        CHANNELS 3 Zrotation Xrotation Yrotation
        JOINT FootRight
        {
          OFFSET -3.894132 -6.697390 -4.962270
          CHANNELS 3 Zrotation Xrotation Yrotation
          End Site
          {
            OFFSET 0 0 0
          }
        }
      }
    }
  }
}
MOTION
Frames: 15
Frame Time: 0.033333
18.980109 73.826980 355.710616 -1.526286 -6.425009 -25.613193 -0.389700 -0.971673 25.408353 -0.173260 -0.214677 -0.130124 5.222680 -8.465568 4.351720 0.000000 0.000000 0.000000 4.445391 8.651091 -0.747464 7.778492 3.489298 -5.214559 21.225689 6.441049 -1.453244 -17.887176 -4.817991 -17.880921 0.000000 0.000000 0.000000 0.000000 0.000000 0.000000 -7.922688 64.477568 25.961402 -21.935512 -45.289101 1.895326 106.011245 -82.674610 -168.914270 27.650443 -36.488993 -28.870038 0.000000 0.000000 0.000000 0.000000 0.000000 0.000000 -3.364650 6.532168 25.697305 -0.299962 -1.271538 -0.253899 -8.501733 41.171782 31.612067 0.000000 0.000000 0.000000 -2.500417 3.231600 25.490295 1.853628 3.794952 -0.106546 34.140580 18.008537 -42.114552 0.000000 0.000000 0.000000
18.994296 73.805102 355.696701 -1.537535 -6.515311 -25.018828 -0.367875 -0.803837 24.812423 -0.070149 -0.069568 -0.120595 4.734255 -8.668980 4.392545 0.000000 0.000000 0.000000 4.058249 8.331134 -0.651617 7.924710 3.589341 -5.233674 21.757679 6.709218 -1.458514 -19.558668 -5.747938 -18.512312 0.000000 0.000000 0.000000 0.000000 0.000000 0.000000 -6.490755 62.558541 23.978603 -20.964103 -43.761310 5.345420 -179.216310 -58.332370 -99.243106 70.272935 -38.486288 -23.900447 0.000000 0.000000 0.000000 0.000000 0.000000 0.000000 -3.344969 6.712483 25.098531 0.012832 -0.988922 -0.202170 -8.367864 45.889477 35.103377 0.000000 0.000000 0.000000 -2.545338 3.245987 24.893702 1.966369 3.857229 -0.096740 35.771627 22.711144 -46.589712 0.000000 0.000000 0.000000
19.010708 73.784639 355.692271 -1.541921 -6.528044 -24.476799 -0.391276 -0.714408 24.271451 -0.071758 -0.101736 -0.120852 4.762015 -8.735771 4.399053 0.000000 0.000000 0.000000 3.868624 8.207135 -0.583312 8.051716 3.648001 -5.260885 22.298567 7.504901 -0.526885 -15.736218 -3.074110 -15.284804 0.000000 0.000000 0.000000 0.000000 0.000000 0.000000 -4.684818 61.421196 22.410772 -21.274487 -42.195329 8.171024 -165.019682 -39.719279 -92.186203 100.045137 -33.875452 -19.350549 0.000000 0.000000 0.000000 0.000000 0.000000 0.000000 -3.317601 6.820627 24.549100 0.337937 -0.896377 -0.137420 -8.450889 43.994113 33.577806 0.000000 0.000000 0.000000 -2.724201 3.197542 24.348281 2.308235 3.755391 -0.050556 26.209467 25.544009 -37.803603 0.000000 0.000000 0.000000
19.016689 73.766263 355.683567 -1.571364 -6.511713 -24.063285 -0.456418 -0.713998 23.857660 -0.145944 -0.200067 -0.128203 5.174867 -8.773453 4.404861 0.000000 0.000000 0.000000 3.838596 8.201977 -0.521621 8.160399 3.674548 -5.223168 22.652945 7.077503 -1.625441 -15.496771 -2.997616 -16.047688 0.000000 0.000000 0.000000 0.000000 0.000000 0.000000 -5.646377 63.393149 24.109627 -23.130893 -44.601105 8.976535 -156.366792 -40.683833 -86.277083 108.350667 -29.059856 -22.805856 0.000000 0.000000 0.000000 0.000000 0.000000 0.000000 -3.207413 6.873616 24.124746 0.549583 -0.805514 -0.091146 -7.933933 37.597921 28.382487 0.000000 0.000000 0.000000 -2.827219 3.169317 23.929524 2.545430 3.666105 -0.018654 19.756397 22.363274 -29.659322 0.000000 0.000000 0.000000
19.022171 73.759170 355.677068 -1.605841 -6.491631 -23.748495 -0.528395 -0.775746 23.541482 -0.269741 -0.301851 -0.137997 5.786480 -8.651996 4.363296 0.000000 0.000000 0.000000 3.966440 8.315663 -0.499665 8.117631 3.607551 -5.228550 23.454954 7.099105 -2.306220 -15.387298 -2.835878 -16.188591 0.000000 0.000000 0.000000 0.000000 0.000000 0.000000 -5.733915 63.669107 24.403466 -23.310260 -44.853557 10.102444 -154.139452 -38.450139 -84.745788 96.091378 -23.497223 -23.680076 0.000000 0.000000 0.000000 0.000000 0.000000 0.000000 -3.091407 6.905597 23.799661 0.754525 -0.425681 -0.068385 -6.749063 24.673968 18.567315 0.000000 0.000000 0.000000 -2.892344 3.164881 23.610157 2.734208 3.563676 0.010443 17.824271 23.367384 -28.344783 0.000000 0.000000 0.000000
19.024226 73.754837 355.682785 -1.654036 -6.504831 -23.663647 -0.587354 -0.963602 23.450787 -0.441732 -0.473232 -0.153946 6.260874 -8.056430 4.245454 0.000000 0.000000 0.000000 4.226721 8.692723 -0.505956 7.957013 3.467848 -5.384165 24.374468 6.704539 -3.792392 -18.955910 -5.384860 -20.045897 0.000000 0.000000 0.000000 0.000000 0.000000 0.000000 -3.617280 60.383113 21.459422 -20.214781 -39.671699 10.420224 -159.933786 -40.651877 -89.821458 78.488587 -13.063443 -33.634687 0.000000 0.000000 0.000000 0.000000 0.000000 0.000000 -3.031726 6.964933 23.707354 0.610041 -0.380094 -0.096851 -7.203123 10.899322 8.980407 0.000000 0.000000 0.000000 -2.980058 3.166116 23.520152 2.970744 3.482016 0.044745 15.614879 23.011694 -26.127312 0.000000 0.000000 0.000000
19.031705 73.752905 355.682682 -1.717493 -6.518424 -23.563664 -0.653711 -1.021989 23.345880 -0.525811 -0.492345 -0.161631 6.735789 -7.966580 4.206914 0.000000 0.000000 0.000000 4.384372 8.831578 -0.520120 7.915391 3.350346 -5.411795 24.444062 5.454477 -6.073824 -28.932346 -11.321345 -28.329245 0.000000 0.000000 0.000000 0.000000 0.000000 0.000000 -0.710416 54.825660 17.416269 -16.894027 -32.982246 11.044098 -173.868681 -45.807844 -97.846960 85.100537 -6.531181 -62.152268 0.000000 0.000000 0.000000 0.000000 0.000000 0.000000 -2.950544 6.997714 23.601669 0.705615 -0.408797 -0.074005 -8.072497 6.488851 5.878363 0.000000 0.000000 0.000000 -3.018882 3.181563 23.413873 3.145940 3.386799 0.075149 13.379519 21.569038 -23.337881 0.000000 0.000000 0.000000
19.040267 73.753592 355.687272 -1.784776 -6.482278 -23.591032 -0.693974 -1.012758 23.369471 -0.549563 -0.460761 -0.164676 6.953329 -8.181124 4.244093 0.000000 0.000000 0.000000 4.417261 8.836040 -0.532247 7.850626 3.199770 -5.590037 24.981925 5.381957 -6.633561 -27.603392 -10.799585 -29.369295 0.000000 0.000000 0.000000 0.000000 0.000000 0.000000 1.049540 52.145556 15.619054 -15.989443 -28.672297 7.982003 157.619049 -59.454873 -116.447436 88.006954 -17.105515 -94.620921 0.000000 0.000000 0.000000 0.000000 0.000000 0.000000 -2.806531 6.927012 23.623838 0.515228 -0.529857 -0.101877 -6.768969 14.864730 11.562127 0.000000 0.000000 0.000000 -3.051895 3.179384 23.433997 3.317423 3.284680 0.102734 8.909010 16.974985 -16.957942 0.000000 0.000000 0.000000
19.052448 73.754988 355.697769 -1.860998 -6.426842 -23.710138 -0.692672 -0.976360 23.483802 -0.510631 -0.386302 -0.163595 6.931434 -8.431102 4.288883 0.000000 0.000000 0.000000 4.227572 8.696840 -0.490810 7.864727 3.101018 -5.893419 25.754468 6.392138 -5.485088 -21.120051 -7.501515 -27.621249 0.000000 0.000000 0.000000 0.000000 0.000000 0.000000 4.147285 43.646424 11.397774 -13.348053 -15.774857 1.619252 8.720539 -24.007236 122.979738 -3.057741 -18.577372 -112.920012 0.000000 0.000000 0.000000 0.000000 0.000000 0.000000 -2.693355 6.831661 23.739636 0.234327 -0.743073 -0.148264 -7.310559 27.897458 21.048174 0.000000 0.000000 0.000000 -3.054059 3.161999 23.544270 3.465135 3.236265 0.121728 8.657322 14.750442 -15.649219 0.000000 0.000000 0.000000
19.065269 73.755247 355.715394 -1.930957 -6.362815 -23.871773 -0.653548 -0.917939 23.640816 -0.412946 -0.270201 -0.158048 6.596977 -8.703028 4.344841 0.000000 0.000000 0.000000 3.855206 8.518165 -0.439554 8.024007 3.015991 -6.162802 26.323921 7.279162 -4.420196 -16.619364 -5.049064 -26.040330 0.000000 0.000000 0.000000 0.000000 0.000000 0.000000 5.744169 45.098440 11.582978 -14.125505 -15.697810 -6.552004 -1.171972 15.235306 81.507913 -14.066047 -32.568288 -66.186541 0.000000 0.000000 0.000000 0.000000 0.000000 0.000000 -2.606502 6.724303 23.899740 -0.071753 -0.993634 -0.200996 -8.443565 32.092658 24.630835 0.000000 0.000000 0.000000 -3.022507 3.113259 23.696131 3.545853 3.263782 0.125469 12.674786 15.212856 -19.549106 0.000000 0.000000 0.000000
19.078470 73.771560 355.738281 -1.984821 -6.310011 -24.134183 -0.586652 -0.831900 23.899620 -0.264789 -0.100353 -0.147693 5.792744 -8.982220 4.416477 0.000000 0.000000 0.000000 3.404386 8.387484 -0.432266 7.484867 2.568199 -6.793513 28.625965 10.703667 -0.802441 -14.116827 -4.478490 -28.221640 0.000000 0.000000 0.000000 0.000000 0.000000 0.000000 6.488764 40.967045 10.107786 -12.217033 -10.480107 -12.087462 5.603732 22.406436 53.943233 -2.252286 -30.914940 -26.521082 0.000000 0.000000 0.000000 0.000000 0.000000 0.000000 -2.567046 6.613449 24.164559 -0.552338 -1.426995 -0.282650 -8.025627 28.650516 21.868315 0.000000 0.000000 0.000000 -3.044239 3.101448 23.952988 3.659890 3.225890 0.137820 12.659791 14.134213 -19.012265 0.000000 0.000000 0.000000
19.091125 73.788042 355.758992 -1.990184 -6.162065 -24.382223 -0.507321 -0.492142 24.155139 -0.004446 0.204856 -0.123847 4.651823 -9.873751 4.551281 0.000000 0.000000 0.000000 2.661701 7.822810 -0.431304 7.635163 2.361797 -6.947199 29.161293 11.393869 -0.182520 -9.808704 -2.201410 -26.587960 0.000000 0.000000 0.000000 0.000000 0.000000 0.000000 6.293742 38.920385 9.697055 -11.438789 -5.774347 -15.309009 9.865812 17.252248 42.141359 3.755691 -25.980251 -7.866533 0.000000 0.000000 0.000000 0.000000 0.000000 0.000000 -2.546398 6.416504 24.414216 -0.809300 -1.568497 -0.337806 -8.297155 28.651187 22.049707 0.000000 0.000000 0.000000 -3.053354 2.977563 24.194699 3.748331 3.218516 0.144328 17.771468 17.316725 -25.609844 0.000000 0.000000 0.000000
19.101658 73.812239 355.783685 -2.000414 -6.033442 -24.778557 -0.472455 -0.352983 24.555634 0.118368 0.216860 -0.118318 3.823349 -10.026248 4.568216 0.000000 0.000000 0.000000 2.094233 7.671663 -0.398813 8.530545 2.469863 -6.678679 27.437577 10.755469 0.376305 -6.629833 -0.219213 -24.512236 0.000000 0.000000 0.000000 0.000000 0.000000 0.000000 5.285812 41.713892 10.849714 -11.322887 -5.579593 -17.522917 12.020912 11.714236 37.842941 7.142810 -23.641513 2.627736 0.000000 0.000000 0.000000 0.000000 0.000000 0.000000 -2.543220 6.249736 24.811287 -0.788537 -1.456174 -0.347702 -8.674380 30.693171 23.823271 0.000000 0.000000 0.000000 -3.074156 2.908356 24.587511 3.800048 3.164135 0.148828 20.105452 19.766052 -29.252386 0.000000 0.000000 0.000000
19.109844 73.839745 355.803049 -2.000129 -5.937756 -25.163096 -0.442345 -0.301487 24.942769 0.186492 0.183341 -0.116375 2.989843 -9.877748 4.541269 0.000000 0.000000 0.000000 1.521275 7.630970 -0.334244 9.956078 2.801131 -6.164901 23.859011 8.818007 0.458814 -2.970628 1.960188 -22.851557 0.000000 0.000000 0.000000 0.000000 0.000000 0.000000 2.334616 49.116437 14.301581 -11.824407 -9.173171 -18.923067 14.236658 5.493986 34.864837 9.124785 -24.329134 11.673992 0.000000 0.000000 0.000000 0.000000 0.000000 0.000000 -2.535046 6.117834 25.196464 -0.545501 -0.985729 -0.328653 -8.944844 33.367370 26.118276 0.000000 0.000000 0.000000 -3.115245 2.857405 24.970479 3.873992 3.126281 0.155498 22.671846 23.051977 -33.631708 0.000000 0.000000 0.000000
19.112692 73.873298 355.816639 -1.988568 -5.921989 -25.476975 -0.409358 -0.342713 25.256125 0.176058 0.088310 -0.119378 2.090162 -9.220350 4.446895 0.000000 0.000000 0.000000 1.149501 7.880148 -0.305040 12.165766 3.457736 -5.094936 16.294101 3.977480 -1.417117 -1.077594 3.457774 -20.946239 0.000000 0.000000 0.000000 0.000000 0.000000 0.000000 3.673287 52.560834 15.192975 -13.486229 -7.113144 -21.812587 15.522547 4.430349 36.358154 3.508274 -37.793435 21.124399 0.000000 0.000000 0.000000 0.000000 0.000000 0.000000 -2.566641 6.091842 25.511125 -0.141640 -0.283224 -0.290671 -8.697826 35.823836 28.043324 0.000000 0.000000 0.000000 -3.184602 2.884549 25.288036 3.934967 3.080926 0.162383 27.783596 24.590730 -39.833782 0.000000 0.000000 0.000000
